<svg width="30" height="30" viewBox="0 0 30 30" fill="none" xmlns="http://www.w3.org/2000/svg">
<path d="M17.9478 7.02601C17.1976 6.7114 16.883 5.81596 17.2218 5.08992L18.4076 2.5972C18.7465 1.89561 19.5693 1.58075 20.2953 1.89561C22.3524 2.76685 24.1191 3.90431 25.5228 5.28377C27.2411 6.90501 28.4027 8.7685 29.032 10.8256C29.6612 12.9071 30 15.7384 30 19.3444V26.7742C30 27.5728 29.3466 28.2262 28.5479 28.2262H19.0369C18.2382 28.2262 17.5848 27.5728 17.5848 26.7742V17.2631C17.5848 16.4642 18.2382 15.811 19.0369 15.811H23.5867C23.5383 13.3665 22.9575 11.4064 21.8926 9.92991C21.0214 8.74454 19.7145 7.77649 17.9478 7.02601Z" fill="#EAEAEA"/>
<path d="M0.861673 7.02612C0.111438 6.7115 -0.202935 5.81606 0.135639 5.09003L1.3215 2.62175C1.66031 1.91992 2.48315 1.6053 3.20919 1.91992C5.24208 2.79116 6.98481 3.92861 8.41243 5.28388C10.131 6.92956 11.3166 8.79305 11.946 10.8501C12.5753 12.8828 12.8896 15.7146 12.8896 19.3448V26.7745C12.8896 27.5731 12.2362 28.2266 11.4376 28.2266H1.92652C1.12789 28.2266 0.474455 27.5731 0.474455 26.7745V17.2635C0.474455 16.4646 1.12789 15.8114 1.92652 15.8114H6.50054C6.45214 13.3668 5.87107 11.4068 4.80646 9.93026C3.93522 8.74464 2.62836 7.7766 0.861673 7.02612Z" fill="#EAEAEA"/>
</svg>
