<svg width="20" height="20" viewBox="0 0 20 20" fill="none" xmlns="http://www.w3.org/2000/svg">
<path d="M0.394994 16.3293C2.24666 17.5043 4.40166 18.1252 6.62666 18.1252C9.885 18.1252 12.8708 16.8735 15.035 14.601C17.1058 12.426 18.245 9.50349 18.1883 6.53765C18.9733 5.86599 19.8967 4.58349 19.8967 3.33349C19.8967 2.85432 19.3767 2.55015 18.955 2.79432C18.2175 3.22765 17.545 3.34099 16.8533 3.14682C15.4408 1.77015 13.3383 1.48015 11.5667 2.43515C10.0183 3.26849 9.1575 4.79349 9.235 6.46015C6.61916 6.14099 4.20249 4.82932 2.51749 2.79099C2.24083 2.45849 1.71583 2.49765 1.49583 2.87432C0.684161 4.26432 0.692495 5.87515 1.39833 7.17599C1.06249 7.23515 0.854994 7.51765 0.854994 7.82349C0.854994 9.13099 1.44333 10.3327 2.39083 11.1527C2.21416 11.3227 2.15583 11.5752 2.23083 11.8002C2.64749 13.0518 3.59083 14.0302 4.76999 14.5202C3.48749 15.1327 2.06916 15.3368 0.806661 15.1818C0.153328 15.0935 -0.169172 15.9718 0.394994 16.3293V16.3293ZM6.79749 14.7343C7.26499 14.3752 7.01666 13.6268 6.42999 13.6143C5.39666 13.5927 4.45583 13.0835 3.86999 12.2827C4.15249 12.2643 4.44499 12.221 4.72333 12.146C5.35749 11.9743 5.32749 11.0593 4.68333 10.9302C3.51416 10.6952 2.59666 9.84349 2.25249 8.74682C2.56666 8.82432 2.88666 8.86765 3.20583 8.87349C3.83833 8.87682 4.07749 8.06599 3.56166 7.72682C2.39916 6.96099 1.90333 5.60849 2.23166 4.33682C4.26166 6.39349 7.01583 7.63265 9.92916 7.77265C10.3467 7.79849 10.66 7.40599 10.5683 7.00849C10.1725 5.29265 11.1308 4.09015 12.16 3.53599C13.1783 2.98599 14.8133 2.81432 16.0667 4.12932C16.4392 4.52182 17.6958 4.53682 18.335 4.38765C18.0483 4.92765 17.6075 5.44015 17.195 5.72849C17.0192 5.85182 16.9183 6.05682 16.9292 6.27099C17.0633 9.00849 16.0433 11.7302 14.1308 13.7377C12.2042 15.7602 9.53999 16.8743 6.62749 16.8743C5.46916 16.8743 4.33333 16.686 3.25999 16.3227C4.54333 16.0743 5.76249 15.531 6.79749 14.7343V14.7343Z" fill="white"/>
</svg>
